<?xml version="1.0" encoding="UTF-8"?>
<svg id="Laag_2" data-name="Laag 2" xmlns="http://www.w3.org/2000/svg" viewBox="0 0 367.87 159.61">
  <defs>
    <style>
      .cls-1 {
        fill: #606060;
      }

      .cls-1, .cls-2 {
        stroke: #f2f2f2;
        stroke-miterlimit: 10;
        stroke-width: 4px;
      }

      .cls-2 {
        fill: none;
      }

      .cls-3 {
        fill: #f2f2f2;
        stroke-width: 0px;
      }
    </style>
  </defs>
  <g id="Laag_1-2" data-name="Laag 1">
    <g>
      <path class="cls-3" d="M190.05,35.62c0,3.02-4.58,6.82-7.12,6.82-1.51,0-1.87-.72-2.84-1.93-1.69-2.11-2.47-2.59-3.86-2.59-.42,0-1.15.6-1.15,1.33,0,4.77,15.93,4.89,15.93,17.98,0,7.84-7.06,12.31-14.9,12.31-8.39,0-16.53-6.03-16.53-11.1,0-3.98,5.25-7.84,7.24-7.84s3.26,6.82,7.06,6.82c1.75,0,2.47-1.39,2.47-2.41,0-3.5-14.6-4.83-14.6-15.75,0-7.78,6.82-12.85,14.24-12.85,8.39,0,14.06,5.07,14.06,9.23Z"/>
      <path class="cls-3" d="M222.86,48.59c0,7.48-16.71,6.27-16.71,8.87,0,1.15,1.03,2.29,4.16,2.29,4.04,0,6.64-3.5,8.26-3.5,1.93.18,4.89,3.56,4.89,5.91,0,2.59-6.15,7.3-14.18,7.3-9.05,0-16.35-5.85-16.35-15.32s7.18-16.47,16.65-16.47c8.39,0,13.27,4.77,13.27,10.92ZM210.07,45.7c-2.77,0-5.49,1.75-5.49,3.44,0,.36.36.91.96.91,2.29,0,6.76-1.75,6.76-2.71,0-.91-.84-1.63-2.23-1.63Z"/>
      <path class="cls-3" d="M245.78,52.64c-2.53,0-1.15-3.26-3.86-3.26-2.41,0-3.32,2.05-3.32,4.1,0,2.65,1.87,4.83,5.13,4.83,5.01,0,6.27-4.46,8.26-4.46,1.87,0,5.31,3.74,5.31,6.76,0,3.2-6.03,9.05-16.47,9.05-7.9,0-15.68-6.09-15.68-14.72,0-11.04,8.45-16.89,17.55-16.89,6.46,0,12.07,4.65,12.07,8.2,0,2.78-6.27,6.4-8.99,6.4Z"/>
      <path class="cls-3" d="M289.57,53c0,8.63-5.37,16.83-15.68,16.83-9.05,0-15.08-6.58-15.08-14.42,0-10.2,7.48-17.13,16.23-17.13,9.23,0,14.54,6.03,14.54,14.72ZM273.65,58.67c2.29,0,4.04-2.41,4.04-5.43,0-1.81-1.09-3.14-2.47-3.14-2.29,0-4.4,2.29-4.4,5.37,0,1.57,1.27,3.2,2.83,3.2Z"/>
      <path class="cls-3" d="M306.4,43.16c1.39-1.93,5.55-5.13,10.5-5.13,5.61,0,9.47,3.02,9.47,7.78s-1.63,7-1.63,10.38c0,5.67,1.15,6.15,1.15,7.96,0,2.53-5.91,4.89-10.86,4.89-2.96,0-4.16-1.45-4.16-3.8,0-3.86,2.11-9.47,2.11-13.57,0-2.41-.66-3.2-1.81-3.2-1.81,0-4.22,2.47-4.22,6.15,0,9.53-.36,14.6-4.95,14.6-3.98,0-9.53-2.05-9.53-4.52,0-1.99.91-3.44.91-8.93,0-4.52-2.05-8.57-2.05-11.46,0-2.41,6.03-5.43,10.5-5.43,3.08,0,3.98,2.47,4.58,4.28Z"/>
      <path class="cls-3" d="M361.96,28.02c0,6.09-1.99,17.13-1.99,25.64,0,6.7,2.77,6.88,2.77,9.17s-5.91,6.52-9.77,6.52c-2.41,0-2.77-2.77-3.98-2.77s-3.2,2.71-9.47,2.71c-6.82,0-11.76-6.88-11.76-14.06,0-10.62,8.26-16.77,13.94-16.77,3.86,0,5.79,1.63,6.58,1.63.54,0,.91-.42.91-1.57,0-4.1-2.11-7.9-2.11-10.19,0-2.05,6.76-5.31,10.44-5.31,3.02,0,4.46,1.69,4.46,5.01ZM345.01,58.25c1.87,0,3.38-1.69,3.38-4.52,0-3.38-1.21-4.52-2.78-4.52-1.81,0-3.68,2.53-3.68,5.37,0,2.17,1.15,3.68,3.08,3.68Z"/>
      <path class="cls-3" d="M195.72,111.15c0,4.65-5.25,8.45-9.29,8.45-1.21,0-2.05-.66-2.05-1.45,0-3.74-.9-5.79-3.14-5.79s-5.31,2.17-5.31,8.87c0,4.95,2.35,8.87,6.21,8.87,4.4,0,7.06-4.34,8.87-4.34s7,3.92,7,7.24c0,2.17-6.39,9.17-17.07,9.17-13.94,0-20.93-8.81-20.93-20.27,0-13.81,10.56-22.08,21.05-22.08,8.87,0,14.66,4.95,14.66,11.34Z"/>
      <path class="cls-3" d="M213.39,98.24c0,2.29-.72,9.59-.72,13.69,0,2.65.36,3.26,1.27,3.26.97,0,4.58-4.65,10.26-4.65,3.68,0,7.06,2.71,7.06,6.45,0,3.98-.91,5.37-.91,10.07,0,5.19,2.05,5.67,2.05,7.96s-5.55,6.21-9.95,6.21c-3.32,0-5.13-1.63-5.13-4.58,0-4.28.72-6.76.72-9.77,0-2.05-.84-3.32-1.87-3.32-1.27,0-2.78,1.39-2.78,4.83,0,4.46.78,5.79.78,8.87s-4.16,5.43-9.83,5.43c-2.59,0-4.16-1.15-4.16-3.5,0-1.33.6-2.96.6-5.73,0-15.99-2.77-20.15-2.77-28.84,0-5.25,7.12-9.83,11.46-9.83,2.77,0,3.92,1.21,3.92,3.44Z"/>
      <path class="cls-3" d="M264.24,120.01c0,6.51-1.03,9.17-1.03,11.58,0,4.16,1.45,4.1,1.45,5.37,0,1.81-5.13,5.07-8.57,5.07-2.77,0-3.5-2.41-4.16-2.41-.72,0-4.16,2.29-8.57,2.29-6.21,0-9.47-3.44-9.47-7.78,0-11.94,17.68-10.8,17.68-14.12,0-.66-.6-1.27-1.87-1.27-5.37,0-9.17,4.28-11.1,4.28-1.57,0-2.05-2.11-2.05-4.1,0-1.39.18-2.71.54-3.32,1.39-3.08,7.12-5.79,14.9-5.79,6.39,0,12.25,3.68,12.25,10.2ZM245.12,132.56c0,1.15.66,1.69,1.87,1.69,1.63,0,4.83-2.9,4.83-4.46,0-.78-.24-1.39-.84-1.39-2.23,0-5.85,2.59-5.85,4.16Z"/>
      <path class="cls-3" d="M282.76,115.55c1.39-1.93,5.55-5.13,10.5-5.13,5.61,0,9.47,3.02,9.47,7.78s-1.63,7-1.63,10.38c0,5.67,1.15,6.15,1.15,7.96,0,2.53-5.91,4.89-10.86,4.89-2.96,0-4.16-1.45-4.16-3.8,0-3.86,2.11-9.47,2.11-13.57,0-2.41-.66-3.2-1.81-3.2-1.81,0-4.22,2.47-4.22,6.15,0,9.53-.36,14.6-4.95,14.6-3.98,0-9.53-2.05-9.53-4.52,0-1.99.9-3.44.9-8.93,0-4.52-2.05-8.57-2.05-11.46,0-2.41,6.03-5.43,10.5-5.43,3.08,0,3.98,2.47,4.58,4.28Z"/>
      <path class="cls-3" d="M324.56,125.02c-2.53,0-1.15-3.26-3.86-3.26-2.41,0-3.32,2.05-3.32,4.1,0,2.65,1.87,4.83,5.13,4.83,5.01,0,6.27-4.46,8.26-4.46,1.87,0,5.31,3.74,5.31,6.76,0,3.2-6.03,9.05-16.47,9.05-7.9,0-15.68-6.09-15.68-14.72,0-11.04,8.45-16.89,17.55-16.89,6.45,0,12.07,4.65,12.07,8.2,0,2.78-6.27,6.4-8.99,6.4Z"/>
      <path class="cls-3" d="M367.27,120.98c0,7.48-16.71,6.27-16.71,8.87,0,1.15,1.03,2.29,4.16,2.29,4.04,0,6.64-3.5,8.26-3.5,1.93.18,4.89,3.56,4.89,5.91,0,2.59-6.15,7.3-14.18,7.3-9.05,0-16.35-5.85-16.35-15.32s7.18-16.47,16.65-16.47c8.39,0,13.27,4.77,13.27,10.92ZM354.48,118.08c-2.77,0-5.49,1.75-5.49,3.44,0,.36.36.91.97.91,2.29,0,6.76-1.75,6.76-2.71,0-.91-.84-1.63-2.23-1.63Z"/>
    </g>
    <g id="Logo_beeldmerk" data-name="Logo beeldmerk">
      <rect class="cls-2" x="2" y="2" width="125.44" height="155.61" rx="15.89" ry="15.89"/>
      <line class="cls-1" x1="64.72" y1="1.34" x2="64.72" y2="157.61"/>
      <line class="cls-1" x1="2" y1="25.63" x2="65.08" y2="88.72"/>
      <line class="cls-1" x1="64.72" y1="121.61" x2="127.44" y2="58.89"/>
      <line class="cls-1" x1="26.91" y1="50.55" x2="42.38" y2="35.09"/>
      <line class="cls-1" x1="97.07" y1="89.26" x2="111.99" y2="104.17"/>
    </g>
  </g>
</svg>