<?xml version="1.0" encoding="UTF-8"?>
<svg id="Laag_2" data-name="Laag 2" xmlns="http://www.w3.org/2000/svg" viewBox="0 0 88.45 58.7">
  <defs>
    <style>
      .cls-1 {
        fill: #048abf;
        stroke: #000;
        stroke-linejoin: round;
        stroke-width: 3px;
      }
    </style>
  </defs>
  <g id="Laag_2-2" data-name="Laag 2">
    <path class="cls-1" d="M83.21,49.71h.1v-16.32c.03-.57.16-3.67-2.19-6.24-2.67-2.92-6.35-2.75-6.83-2.72l-20.3-.6h0c-1.77-3.58-5-6.3-8.91-7.39v-5.25h10.05c2.68,0,4.85-2.17,4.85-4.85s-2.17-4.85-4.85-4.85h-29.12c-2.68,0-4.85,2.17-4.85,4.85s2.17,4.85,4.85,4.85h10.04v5.7c-3.6,1.42-6.48,4.25-7.95,7.83H11.03v-.38c0-2.63-2.13-4.77-4.77-4.77s-4.77,2.13-4.77,4.77v12.1c0,2.63,2.13,4.77,4.77,4.77s4.77-2.13,4.77-4.77h0s17.46,0,17.46,0c2.32,4.69,7.15,7.91,12.74,7.91,5.86,0,10.9-3.55,13.07-8.62h0s16.99.85,16.99.85v13.14h.8c-2.07,0-3.75,1.68-3.75,3.75h0c0,2.07,1.68,3.75,3.75,3.75h11.11c2.07,0,3.75-1.68,3.75-3.75h0c0-2.07-1.68-3.75-3.75-3.75Z"/>
  </g>
</svg>