<?xml version="1.0" encoding="UTF-8"?>
<svg id="Laag_2" data-name="Laag 2" xmlns="http://www.w3.org/2000/svg" viewBox="0 0 86.81 86.81">
  <defs>
    <style>
      .cls-1 {
        fill: #a1a60f;
        stroke-linecap: round;
        stroke-linejoin: round;
        stroke-width: 2px;
      }

      .cls-1, .cls-2 {
        stroke: #000;
      }

      .cls-2 {
        fill: #048abf;
        stroke-miterlimit: 10;
        stroke-width: 3px;
      }
    </style>
  </defs>
  <g id="Laag_2-2" data-name="Laag 2">
    <g id="Wereldbol">
      <circle class="cls-2" cx="43.4" cy="43.4" r="41.9"/>
      <path class="cls-1" d="M76.7,68.84c.18-2.72.18-5.96-.24-9.58-.31-2.64-.79-5.01-1.33-7.08-1.55-2.44-3.18-5.39-4.64-8.84-1.03-2.44-1.82-4.75-2.43-6.85-.49-1.42-1.81-4.63-5.09-7.08-5.57-4.15-12.07-2.59-13-2.35-1.41.1-9.71.52-16.63-5.83-6.89-6.32-7.2-14.58-7.23-16,18.15-8.54,39.84-3.12,51.56,12.61,11.16,14.98,10.84,36.02-.96,50.99Z"/>
      <path class="cls-1" d="M7.62,21.58c.77.01,5.27.15,8.66,3.85,2.86,3.12,3.07,6.76,3.09,7.72-.75,1.43-1.49,3.15-2.08,5.13-1.51,5.11-1.28,9.63-.85,12.56-.23,1.19-.68,2.68-1.61,4.2-2.88,4.73-8.03,5.98-9.33,6.25-.28-.64-.57-1.29-.85-1.93-1.49-3.67-4.07-11.45-2.8-21.3.98-7.61,3.84-13.28,5.78-16.48Z"/>
      <path class="cls-1" d="M16.54,75.56c-.15-.29-2.08-4.06.02-7.95,2.13-3.94,6.42-4.36,6.73-4.38,3.03-.35,6.06-.7,9.09-1.04,1.96-.83,3.92-1.67,5.89-2.5h0c1.86-.82,5.29-2.01,9.61-1.68,2.1.16,3.87.64,5.22,1.13,1.32.53,2.64,1.06,3.96,1.59.61.1,1.3.26,2.04.52,2.05.74,3.46,1.95,4.28,2.8,3.43,1.23,5.76,4.31,5.9,7.71.16,4.03-2.83,6.58-3.2,6.88-3.04,1.94-13.25,7.9-27.1,6.42-11.65-1.24-19.46-7.05-22.42-9.51Z"/>
      <path class="cls-1" d="M53.74,42.97c2.41,4.84,6.66,6.17,6.18,7.35-.63,1.56-6.48-.89-15.39.59-4.34.72-5.06,1.66-9.64,2.06-4.87.43-8.84.78-10.75-1.47-2.98-3.52-.03-12.35,5.6-15.76,1.21-.73,2.64-1.04,5.45-1.62,7.88-1.63,13.53-2.8,16.23-.02,2.11,2.17.08,4.36,2.33,8.87Z"/>
    </g>
  </g>
</svg>